<?xml version="1.0" standalone="no"?>
<!DOCTYPE svg PUBLIC "-//W3C//DTD SVG 1.1//EN" "http://www.w3.org/Graphics/SVG/1.1/DTD/svg11.dtd">
<svg width="100%" height="100%" viewBox="0 0 567 670" version="1.1" xmlns="http://www.w3.org/2000/svg" xmlns:xlink="http://www.w3.org/1999/xlink" xml:space="preserve" style="fill-rule:evenodd;clip-rule:evenodd;stroke-linejoin:round;stroke-miterlimit:1.41421;">
    <g transform="matrix(1,0,0,1,-134.281,-71.9476)">
        <g id="Layer1" transform="matrix(1.71435,0,0,1.71435,-212.5,-457.698)">
            <g id="tablet" transform="matrix(1,0,0,1,198.535,199)">
                <rect x="223.898" y="162.223" width="24.096" height="33.73" style="fill:rgb(226,197,156);fill-rule:nonzero;"/>
                <path d="M246.727,164.394L246.727,113.648C246.727,111.602 245.068,109.948 243.021,109.948L176.217,109.948C174.176,109.948 172.522,111.602 172.522,113.648L172.522,164.394C172.522,166.434 174.176,168.089 176.217,168.089L243.021,168.089C245.068,168.089 246.727,166.434 246.727,164.394" style="fill:rgb(14,48,63);fill-rule:nonzero;"/>
                <rect x="179.693" y="116.544" width="59.861" height="44.946" style="fill:rgb(122,194,134);fill-rule:nonzero;"/>
                <path d="M196.348,162.475L196.348,156.588C196.28,156.584 196.217,156.576 196.149,156.576L194.584,156.576C191.989,156.576 189.885,158.68 189.885,161.277L189.885,167.634L188.418,169.099L188.418,161.169C188.418,161.049 188.405,160.928 188.399,160.81L188.399,138.007C188.399,136.251 186.971,134.825 185.217,134.825C183.459,134.825 182.034,136.251 182.034,138.007L182.034,153.126C181.539,153.01 181.028,152.943 180.5,152.92L180.5,147.846C180.5,146.088 179.075,144.665 177.317,144.665C175.561,144.665 174.137,146.088 174.137,147.846L174.137,152.902L172.604,152.902L172.604,150.746C172.604,148.99 171.176,147.562 169.42,147.562C167.661,147.562 166.237,148.99 166.237,150.746L166.237,152.926C165.705,152.958 165.184,153.036 164.68,153.165C164.29,151.848 163.077,150.886 161.631,150.886C159.875,150.886 158.452,152.313 158.452,154.069L158.452,174.601C158.452,177.381 159.827,179.833 161.927,181.333L161.927,234.556L182.327,234.556L182.327,182.571C183.664,182.207 184.862,181.52 185.838,180.594L196.375,170.28L196.375,162.469C196.368,162.471 196.359,162.473 196.348,162.475" style="fill:rgb(233,214,184);fill-rule:nonzero;"/>
                <path d="M248.257,154.461L246.301,150.038L246.358,150.036L244.311,145.533L242.494,141.421L242.455,141.444L242.408,141.347L229.404,141.544C229.4,141.634 229.39,141.724 229.392,141.816L229.426,143.981C229.483,147.569 232.442,150.429 236.027,150.371L237.451,150.325L239.461,156.362C235.375,159.375 232.613,165.126 232.613,171.726C232.613,176.798 234.244,181.364 236.85,184.576L248.213,184.576L248.213,154.475L248.257,154.461Z" style="fill:rgb(233,214,184);fill-rule:nonzero;"/>
                <rect x="220.76" y="185.353" width="30.271" height="315.158" style="fill:rgb(89,98,115);fill-rule:nonzero;"/>
                <rect x="160.793" y="185.353" width="30.274" height="315.158" style="fill:rgb(89,98,115);fill-rule:nonzero;"/>
                <rect x="237.285" y="186.269" width="12.371" height="314.241" style="fill:rgb(71,79,89);fill-rule:nonzero;"/>
                <rect x="177.776" y="186.269" width="12.372" height="314.241" style="fill:rgb(71,79,89);fill-rule:nonzero;"/>
            </g>
            <g id="search" transform="matrix(1,0,0,1,186.163,199.001)">
                <g transform="matrix(1,0,0,1,-61,2)">
                    <path d="M84.338,282.376C86.385,285.749 89.615,288.121 93.435,289.057C94.589,289.341 95.767,289.481 96.942,289.481C103.756,289.481 109.649,284.856 111.272,278.234C112.206,274.416 111.594,270.455 109.548,267.084C107.502,263.71 104.274,261.339 100.457,260.404C99.299,260.122 98.119,259.98 96.945,259.98C90.132,259.98 84.24,264.601 82.619,271.22C81.682,275.039 82.295,279.002 84.338,282.376M77.693,270.013C79.873,261.122 87.788,254.908 96.945,254.908C98.526,254.908 100.113,255.102 101.66,255.481C106.793,256.737 111.135,259.924 113.883,264.455C116.629,268.982 117.452,274.305 116.195,279.441C114.015,288.339 106.098,294.553 96.942,294.553C95.363,294.553 93.777,294.361 92.231,293.982C87.095,292.725 82.754,289.535 80.004,285.003C77.256,280.472 76.435,275.148 77.693,270.013" style="fill:rgb(44,88,113);fill-rule:nonzero;"/>
                </g>
                <g transform="matrix(1,0,0,1,-61,2)">
                    <path d="M126.701,328.849C127.597,328.849 128.504,328.611 129.326,328.112C131.719,326.66 132.484,323.541 131.029,321.148L115.787,296.012C114.333,293.618 111.215,292.856 108.82,294.307C106.426,295.759 105.663,298.879 107.113,301.272L122.361,326.407C123.314,327.978 124.986,328.849 126.701,328.849" style="fill:rgb(44,88,113);fill-rule:nonzero;"/>
                </g>
                <g transform="matrix(1,0,0,1,-60.8844,-0.0007)">
                    <path d="M130.187,305.136C129.868,303.823 128.515,301.696 128.515,301.696L118.792,291.971L110.384,291.997L111.342,293.577C113.089,293.541 114.813,294.409 115.788,296.012L117.786,299.314L110.387,299.314C110.276,299.314 110.167,299.323 110.054,299.328L97.997,299.328C96.376,299.328 95.058,300.644 95.058,302.266C95.058,303.889 96.376,305.202 97.997,305.202L102.967,305.202C102.86,305.659 102.795,306.133 102.776,306.619L98.093,306.619C96.47,306.619 95.157,307.932 95.157,309.554C95.157,311.174 96.47,312.49 98.093,312.49L102.758,312.49L102.758,313.906L100.768,313.906C99.145,313.906 97.831,315.22 97.831,316.841C97.831,318.463 99.145,319.78 100.768,319.78L102.78,319.78C102.81,320.276 102.885,320.76 103.004,321.227C101.791,321.585 100.899,322.7 100.899,324.029C100.899,325.651 102.212,326.968 103.833,326.968L122.783,326.968C125.286,326.968 127.5,325.755 128.89,323.896L148.683,323.896L148.683,305.136L130.187,305.136Z" style="fill:rgb(226,197,156);fill-rule:nonzero;"/>
                </g>
                <g transform="matrix(1,0,0,1,-60.8844,-0.0007)">
                    <path d="M135.094,301.271L161.732,301.271L161.732,301.285C162.044,301.281 162.355,301.271 162.668,301.271C211.451,301.271 251.002,340.821 251.002,389.605C251.002,391.045 251.071,392.474 251.002,393.897L251.002,500.51L220.727,500.51L220.727,393.897C220.83,392.48 220.727,391.05 220.727,389.605C220.727,357.54 194.732,331.545 162.668,331.545C130.604,331.545 135.094,331.547 135.094,331.547L135.094,301.271Z" style="fill:rgb(114,188,197);fill-rule:nonzero;"/>
                </g>
                <g transform="matrix(1,0,0,1,-60.8844,-0.0007)">
                    <path d="M221.646,500.511L221.646,393.931C221.712,392.953 221.69,391.974 221.667,391.027C221.658,390.555 221.646,390.08 221.646,389.606C221.646,357.084 195.189,330.626 162.667,330.626C144.791,330.626 138.277,330.627 136.012,330.627L136.012,319.665C136.792,319.639 137.515,319.629 138.212,319.629L162.574,319.629C202.238,319.629 234.507,351.897 234.507,391.563L234.507,500.511L221.646,500.511Z" style="fill:rgb(95,156,164);fill-rule:nonzero;"/>
                </g>
            </g>
            <g id="email" transform="matrix(1,0,0,1,-141.689,151)">
                <g transform="matrix(1,0,0,1,-23,-462)">
                    <path d="M649.276,853.037L649.869,853.037C649.972,852.416 649.254,852.522 649.276,853.037" style="fill:rgb(71,79,89);fill-rule:nonzero;"/>
                </g>
                <g transform="matrix(1,0,0,1,-23,-462)">
                    <path d="M653.463,907.053L648.138,911.81L672.291,935.332L697.524,911.81L692.197,907.498" style="fill:rgb(164,216,231);fill-rule:nonzero;"/>
                </g>
                <g transform="matrix(1,0,0,1,-23,-462)">
                    <path d="M672.83,890.33L660.497,901.038L648.158,911.746L697.5,911.746L685.164,901.038L672.83,890.33Z" style="fill:rgb(193,226,222);fill-rule:nonzero;"/>
                </g>
                <g transform="matrix(1,0,0,1,-23,-462)">
                    <path d="M691.9,931.491L691.9,700.113L653.759,700.113L653.759,931.491" style="fill:white;fill-rule:nonzero;"/>
                </g>
                <g transform="matrix(1,0,0,1,-23,-462)">
                    <path d="M678.685,927.655L697.307,944.263C696.85,945.475 695.687,946.341 694.315,946.341L651.349,946.341C649.977,946.341 648.813,945.475 648.355,944.263L666.977,927.655L678.685,927.655Z" style="fill:rgb(236,133,88);fill-rule:nonzero;"/>
                </g>
                <g transform="matrix(1,0,0,1,-23,-462)">
                    <path d="M666.883,927.738L648.355,944.263C648.415,944.424 648.49,944.577 648.572,944.725L648.568,944.731C648.295,944.259 648.138,943.713 648.138,943.126L648.138,911.81L666.883,927.738Z" style="fill:rgb(212,111,65);fill-rule:nonzero;"/>
                </g>
                <g transform="matrix(1,0,0,1,-23,-462)">
                    <path d="M697.307,944.264L678.78,927.739L697.524,911.811L697.524,943.126C697.524,943.713 697.367,944.259 697.092,944.732L697.086,944.726C697.172,944.577 697.246,944.424 697.307,944.264" style="fill:rgb(212,111,65);fill-rule:nonzero;"/>
                </g>
                <g transform="matrix(1,0,0,1,-23,-462)">
                    <rect x="658.13" y="762.006" width="12.892" height="14.19" style="fill:rgb(175,215,166);fill-rule:nonzero;"/>
                </g>
                <g transform="matrix(1,0,0,1,-23,-462)">
                    <path d="M658.354,775.973L670.798,775.973L670.798,762.23L658.354,762.23L658.354,775.973ZM671.245,776.42L657.906,776.42L657.906,761.782L671.245,761.782L671.245,776.42Z" style="fill:white;fill-rule:nonzero;"/>
                </g>
                <g transform="matrix(1,0,0,1,-23,-462)">
                    <path d="M658.637,775.973L670.798,775.973L670.798,762.586L658.637,775.973ZM671.022,776.42L658.13,776.42C658.041,776.42 657.961,776.368 657.925,776.287C657.889,776.206 657.905,776.112 657.964,776.046L670.856,761.856C670.918,761.787 671.017,761.766 671.103,761.797C671.189,761.83 671.245,761.913 671.245,762.006L671.245,776.197C671.245,776.321 671.146,776.42 671.022,776.42" style="fill:white;fill-rule:nonzero;"/>
                </g>
                <g transform="matrix(1,0,0,1,-23,-462)">
                    <path d="M658.353,775.973L670.514,775.973L658.353,762.586L658.353,775.973ZM671.032,776.42L671.022,776.42L658.129,776.42C658.006,776.42 657.906,776.321 657.906,776.197L657.906,762.006C657.906,761.913 657.963,761.83 658.049,761.797C658.133,761.765 658.232,761.785 658.296,761.856L671.152,776.007C671.214,776.046 671.257,776.116 671.257,776.197C671.257,776.321 671.156,776.42 671.032,776.42" style="fill:white;fill-rule:nonzero;"/>
                </g>
                <g transform="matrix(1,0,0,1,-23,-462)">
                    <rect x="672.908" y="762.277" width="7.648" height="1.043" style="fill:rgb(175,215,166);fill-rule:nonzero;"/>
                </g>
                <g transform="matrix(1,0,0,1,-23,-462)">
                    <rect x="672.908" y="764.93" width="13.823" height="0.643" style="fill:rgb(71,79,89);fill-rule:nonzero;"/>
                </g>
                <g transform="matrix(1,0,0,1,-23,-462)">
                    <rect x="672.908" y="767.05" width="11.748" height="0.644" style="fill:rgb(71,79,89);fill-rule:nonzero;"/>
                </g>
                <g transform="matrix(1,0,0,1,-23,-462)">
                    <rect x="672.908" y="769.173" width="13.018" height="0.643" style="fill:rgb(71,79,89);fill-rule:nonzero;"/>
                </g>
                <g transform="matrix(1,0,0,1,-23,-462)">
                    <rect x="672.908" y="771.295" width="10.133" height="0.643" style="fill:rgb(71,79,89);fill-rule:nonzero;"/>
                </g>
                <g transform="matrix(1,0,0,1,-23,-462)">
                    <rect x="672.908" y="774.244" width="4.474" height="1.877" style="fill:rgb(175,215,166);fill-rule:nonzero;"/>
                </g>
                <g transform="matrix(1,0,0,1,-23,-462)">
                    <rect x="673.658" y="774.86" width="2.973" height="0.644" style="fill:rgb(71,79,89);fill-rule:nonzero;"/>
                </g>
                <g transform="matrix(1,0,0,1,-23,-462)">
                    <rect x="658.13" y="781.28" width="12.892" height="14.191" style="fill:rgb(175,215,166);fill-rule:nonzero;"/>
                </g>
                <g transform="matrix(1,0,0,1,-23,-462)">
                    <path d="M658.303,795.298L670.849,795.298L670.849,781.452L658.303,781.452L658.303,795.298ZM671.194,795.644L657.957,795.644L657.957,781.107L671.194,781.107L671.194,795.644Z" style="fill:white;fill-rule:nonzero;"/>
                </g>
                <g transform="matrix(1,0,0,1,-23,-462)">
                    <path d="M658.521,795.298L670.848,795.298L670.848,781.728L658.521,795.298ZM671.021,795.644L658.129,795.644C658.061,795.644 657.999,795.604 657.971,795.541C657.943,795.479 657.956,795.405 658.001,795.355L670.893,781.163C670.941,781.11 671.016,781.093 671.084,781.118C671.15,781.144 671.194,781.208 671.194,781.279L671.194,795.471C671.194,795.567 671.117,795.644 671.021,795.644" style="fill:white;fill-rule:nonzero;"/>
                </g>
                <g transform="matrix(1,0,0,1,-23,-462)">
                    <path d="M658.303,795.298L670.63,795.298L658.303,781.728L658.303,795.298ZM671.031,795.644L671.022,795.644L658.13,795.644C658.034,795.644 657.957,795.567 657.957,795.471L657.957,781.279C657.957,781.208 658.001,781.144 658.068,781.118C658.136,781.092 658.21,781.11 658.258,781.163L671.122,795.324C671.171,795.355 671.203,795.409 671.203,795.471C671.203,795.567 671.126,795.644 671.031,795.644" style="fill:white;fill-rule:nonzero;"/>
                </g>
                <g transform="matrix(1,0,0,1,-23,-462)">
                    <rect x="672.908" y="781.55" width="7.648" height="1.044" style="fill:rgb(175,215,166);fill-rule:nonzero;"/>
                </g>
                <g transform="matrix(1,0,0,1,-23,-462)">
                    <rect x="672.908" y="784.204" width="13.823" height="0.644" style="fill:rgb(71,79,89);fill-rule:nonzero;"/>
                </g>
                <g transform="matrix(1,0,0,1,-23,-462)">
                    <rect x="672.908" y="786.324" width="11.748" height="0.644" style="fill:rgb(71,79,89);fill-rule:nonzero;"/>
                </g>
                <g transform="matrix(1,0,0,1,-23,-462)">
                    <rect x="672.908" y="788.447" width="13.018" height="0.643" style="fill:rgb(71,79,89);fill-rule:nonzero;"/>
                </g>
                <g transform="matrix(1,0,0,1,-23,-462)">
                    <rect x="672.908" y="790.569" width="10.133" height="0.642" style="fill:rgb(71,79,89);fill-rule:nonzero;"/>
                </g>
                <g transform="matrix(1,0,0,1,-23,-462)">
                    <rect x="672.908" y="793.517" width="4.474" height="1.878" style="fill:rgb(175,215,166);fill-rule:nonzero;"/>
                </g>
                <g transform="matrix(1,0,0,1,-23,-462)">
                    <rect x="673.658" y="794.134" width="2.973" height="0.642" style="fill:rgb(71,79,89);fill-rule:nonzero;"/>
                </g>
                <g transform="matrix(1,0,0,1,-23,-462)">
                    <rect x="658.13" y="902.231" width="12.892" height="14.189" style="fill:rgb(175,215,166);fill-rule:nonzero;"/>
                </g>
                <g transform="matrix(1,0,0,1,-23,-462)">
                    <path d="M658.303,916.247L670.849,916.247L670.849,902.403L658.303,902.403L658.303,916.247ZM671.194,916.593L657.957,916.593L657.957,902.058L671.194,902.058L671.194,916.593Z" style="fill:white;fill-rule:nonzero;"/>
                </g>
                <g transform="matrix(1,0,0,1,-23,-462)">
                    <path d="M658.521,916.247L670.848,916.247L670.848,902.679L658.521,916.247ZM671.021,916.593L658.129,916.593C658.061,916.593 657.999,916.553 657.971,916.49C657.943,916.428 657.956,916.354 658.001,916.304L670.893,902.114C670.941,902.062 671.016,902.045 671.084,902.069C671.15,902.095 671.194,902.159 671.194,902.23L671.194,916.42C671.194,916.515 671.117,916.593 671.021,916.593" style="fill:white;fill-rule:nonzero;"/>
                </g>
                <g transform="matrix(1,0,0,1,-23,-462)">
                    <path d="M658.303,916.247L670.63,916.247L658.303,902.679L658.303,916.247ZM671.031,916.593L671.022,916.593L658.13,916.593C658.034,916.593 657.957,916.515 657.957,916.42L657.957,902.23C657.957,902.159 658.001,902.095 658.068,902.069C658.136,902.044 658.21,902.061 658.258,902.114L671.122,916.273C671.171,916.304 671.203,916.358 671.203,916.42C671.203,916.515 671.126,916.593 671.031,916.593" style="fill:white;fill-rule:nonzero;"/>
                </g>
                <g transform="matrix(1,0,0,1,-23,-462)">
                    <rect x="672.908" y="902.501" width="7.648" height="1.042" style="fill:rgb(175,215,166);fill-rule:nonzero;"/>
                </g>
                <g transform="matrix(1,0,0,1,-23,-462)">
                    <rect x="672.908" y="905.154" width="13.823" height="0.643" style="fill:rgb(71,79,89);fill-rule:nonzero;"/>
                </g>
                <g transform="matrix(1,0,0,1,-23,-462)">
                    <rect x="672.908" y="907.275" width="11.748" height="0.642" style="fill:rgb(71,79,89);fill-rule:nonzero;"/>
                </g>
                <g transform="matrix(1,0,0,1,-23,-462)">
                    <rect x="672.908" y="909.397" width="13.018" height="0.642" style="fill:rgb(71,79,89);fill-rule:nonzero;"/>
                </g>
                <g transform="matrix(1,0,0,1,-23,-462)">
                    <rect x="672.908" y="911.518" width="10.133" height="0.643" style="fill:rgb(71,79,89);fill-rule:nonzero;"/>
                </g>
                <g transform="matrix(1,0,0,1,-23,-462)">
                    <rect x="672.908" y="914.469" width="4.474" height="1.877" style="fill:rgb(175,215,166);fill-rule:nonzero;"/>
                </g>
                <g transform="matrix(1,0,0,1,-23,-462)">
                    <rect x="673.658" y="915.084" width="2.973" height="0.643" style="fill:rgb(71,79,89);fill-rule:nonzero;"/>
                </g>
                <g transform="matrix(1,0,0,1,-23,-462)">
                    <rect x="674.727" y="856.322" width="12.892" height="14.191" style="fill:rgb(175,215,166);fill-rule:nonzero;"/>
                </g>
                <g transform="matrix(1,0,0,1,-23,-462)">
                    <path d="M674.9,870.34L687.446,870.34L687.446,856.494L674.9,856.494L674.9,870.34ZM687.792,870.686L674.555,870.686L674.555,856.149L687.792,856.149L687.792,870.686Z" style="fill:white;fill-rule:nonzero;"/>
                </g>
                <g transform="matrix(1,0,0,1,-23,-462)">
                    <path d="M675.119,870.34L687.446,870.34L687.446,856.77L675.119,870.34ZM687.619,870.686L674.727,870.686C674.659,870.686 674.597,870.646 674.569,870.583C674.541,870.521 674.554,870.447 674.6,870.397L687.491,856.205C687.539,856.152 687.614,856.135 687.682,856.16C687.748,856.186 687.792,856.25 687.792,856.322L687.792,870.513C687.792,870.609 687.715,870.686 687.619,870.686" style="fill:white;fill-rule:nonzero;"/>
                </g>
                <g transform="matrix(1,0,0,1,-23,-462)">
                    <path d="M674.9,870.34L687.227,870.34L674.9,856.77L674.9,870.34ZM687.628,870.686C687.625,870.685 687.622,870.685 687.622,870.685L674.727,870.686C674.631,870.686 674.554,870.609 674.554,870.513L674.554,856.322C674.554,856.25 674.598,856.186 674.665,856.16C674.732,856.134 674.807,856.152 674.855,856.205L687.719,870.366C687.768,870.397 687.8,870.451 687.8,870.513C687.8,870.609 687.723,870.686 687.628,870.686" style="fill:white;fill-rule:nonzero;"/>
                </g>
                <g transform="matrix(1,0,0,1,-23,-462)">
                    <rect x="658.13" y="856.593" width="7.649" height="1.045" style="fill:rgb(175,215,166);fill-rule:nonzero;"/>
                </g>
                <g transform="matrix(1,0,0,1,-23,-462)">
                    <rect x="658.13" y="859.247" width="13.823" height="0.642" style="fill:rgb(71,79,89);fill-rule:nonzero;"/>
                </g>
                <g transform="matrix(1,0,0,1,-23,-462)">
                    <rect x="658.13" y="861.368" width="11.749" height="0.643" style="fill:rgb(71,79,89);fill-rule:nonzero;"/>
                </g>
                <g transform="matrix(1,0,0,1,-23,-462)">
                    <rect x="658.13" y="863.49" width="13.019" height="0.644" style="fill:rgb(71,79,89);fill-rule:nonzero;"/>
                </g>
                <g transform="matrix(1,0,0,1,-23,-462)">
                    <rect x="658.13" y="865.611" width="10.133" height="0.644" style="fill:rgb(71,79,89);fill-rule:nonzero;"/>
                </g>
                <g transform="matrix(1,0,0,1,-23,-462)">
                    <rect x="658.13" y="868.562" width="4.474" height="1.876" style="fill:rgb(175,215,166);fill-rule:nonzero;"/>
                </g>
                <g transform="matrix(1,0,0,1,-23,-462)">
                    <rect x="658.883" y="869.177" width="2.971" height="0.643" style="fill:rgb(71,79,89);fill-rule:nonzero;"/>
                </g>
                <g transform="matrix(1,0,0,1,-23,-462)">
                    <rect x="658.13" y="716.563" width="26.595" height="0.945" style="fill:rgb(71,79,89);fill-rule:nonzero;"/>
                </g>
                <g transform="matrix(1,0,0,1,-23,-462)">
                    <rect x="658.13" y="719.328" width="23.458" height="0.945" style="fill:rgb(71,79,89);fill-rule:nonzero;"/>
                </g>
                <g transform="matrix(1,0,0,1,-23,-462)">
                    <rect x="658.13" y="722.092" width="29.284" height="0.945" style="fill:rgb(71,79,89);fill-rule:nonzero;"/>
                </g>
                <g transform="matrix(1,0,0,1,-23,-462)">
                    <rect x="658.13" y="724.856" width="27.042" height="0.945" style="fill:rgb(71,79,89);fill-rule:nonzero;"/>
                </g>
                <g transform="matrix(1,0,0,1,-23,-462)">
                    <rect x="658.13" y="727.62" width="29.284" height="0.945" style="fill:rgb(71,79,89);fill-rule:nonzero;"/>
                </g>
                <g transform="matrix(1,0,0,1,-23,-462)">
                    <rect x="658.13" y="730.383" width="25.698" height="0.945" style="fill:rgb(71,79,89);fill-rule:nonzero;"/>
                </g>
                <g transform="matrix(1,0,0,1,-23,-462)">
                    <rect x="658.13" y="733.149" width="29.284" height="0.945" style="fill:rgb(71,79,89);fill-rule:nonzero;"/>
                </g>
                <g transform="matrix(1,0,0,1,-23,-462)">
                    <rect x="658.13" y="735.912" width="14.94" height="0.945" style="fill:rgb(71,79,89);fill-rule:nonzero;"/>
                </g>
                <g transform="matrix(1,0,0,1,-23,-462)">
                    <rect x="658.13" y="738.676" width="29.284" height="0.945" style="fill:rgb(71,79,89);fill-rule:nonzero;"/>
                </g>
                <g transform="matrix(1,0,0,1,-23,-462)">
                    <rect x="658.13" y="741.44" width="27.042" height="0.945" style="fill:rgb(71,79,89);fill-rule:nonzero;"/>
                </g>
                <g transform="matrix(1,0,0,1,-23,-462)">
                    <rect x="658.13" y="744.204" width="23.458" height="0.945" style="fill:rgb(71,79,89);fill-rule:nonzero;"/>
                </g>
                <g transform="matrix(1,0,0,1,-23,-462)">
                    <rect x="658.13" y="746.969" width="27.491" height="0.945" style="fill:rgb(71,79,89);fill-rule:nonzero;"/>
                </g>
                <g transform="matrix(1,0,0,1,-23,-462)">
                    <rect x="658.13" y="749.734" width="29.284" height="0.945" style="fill:rgb(71,79,89);fill-rule:nonzero;"/>
                </g>
                <g transform="matrix(1,0,0,1,-23,-462)">
                    <rect x="658.13" y="805.761" width="26.595" height="0.945" style="fill:rgb(71,79,89);fill-rule:nonzero;"/>
                </g>
                <g transform="matrix(1,0,0,1,-23,-462)">
                    <rect x="658.13" y="808.526" width="23.458" height="0.945" style="fill:rgb(71,79,89);fill-rule:nonzero;"/>
                </g>
                <g transform="matrix(1,0,0,1,-23,-462)">
                    <rect x="658.13" y="811.287" width="29.284" height="0.945" style="fill:rgb(71,79,89);fill-rule:nonzero;"/>
                </g>
                <g transform="matrix(1,0,0,1,-23,-462)">
                    <rect x="658.13" y="814.052" width="27.042" height="0.945" style="fill:rgb(71,79,89);fill-rule:nonzero;"/>
                </g>
                <g transform="matrix(1,0,0,1,-23,-462)">
                    <rect x="658.13" y="816.817" width="29.284" height="0.945" style="fill:rgb(71,79,89);fill-rule:nonzero;"/>
                </g>
                <g transform="matrix(1,0,0,1,-23,-462)">
                    <rect x="658.13" y="819.581" width="25.698" height="0.945" style="fill:rgb(71,79,89);fill-rule:nonzero;"/>
                </g>
                <g transform="matrix(1,0,0,1,-23,-462)">
                    <rect x="658.13" y="706.578" width="29.583" height="6.274" style="fill:rgb(175,215,166);fill-rule:nonzero;"/>
                </g>
                <g transform="matrix(1,0,0,1,-23,-462)">
                    <rect x="658.13" y="888.682" width="26.595" height="0.945" style="fill:rgb(71,79,89);fill-rule:nonzero;"/>
                </g>
                <g transform="matrix(1,0,0,1,-23,-462)">
                    <rect x="658.13" y="891.448" width="23.458" height="0.945" style="fill:rgb(71,79,89);fill-rule:nonzero;"/>
                </g>
                <g transform="matrix(1,0,0,1,-23,-462)">
                    <rect x="658.13" y="894.211" width="29.284" height="0.945" style="fill:rgb(71,79,89);fill-rule:nonzero;"/>
                </g>
                <g transform="matrix(1,0,0,1,-23,-462)">
                    <rect x="658.13" y="878.697" width="29.583" height="6.274" style="fill:rgb(236,133,88);fill-rule:nonzero;"/>
                </g>
                <g transform="matrix(1,0,0,1,-23,-462)">
                    <rect x="658.13" y="829.605" width="29.583" height="16.079" style="fill:rgb(150,213,218);fill-rule:nonzero;"/>
                </g>
                <g transform="matrix(1,0,0,1,-23,-462)">
                    <path d="M658.354,845.461L687.49,845.461L687.49,829.829L658.354,829.829L658.354,845.461ZM687.937,845.908L657.907,845.908L657.907,829.382L687.937,829.382L687.937,845.908Z" style="fill:white;fill-rule:nonzero;"/>
                </g>
                <g transform="matrix(1,0,0,1,-23,-462)">
                    <path d="M687.713,845.685L658.13,829.606" style="fill:rgb(150,213,218);fill-rule:nonzero;"/>
                </g>
                <g transform="matrix(1,0,0,1,-23,-462)">
                    <path d="M687.605,845.882L658.022,829.803L658.237,829.408L687.82,845.487L687.605,845.882Z" style="fill:white;fill-rule:nonzero;"/>
                </g>
                <g transform="matrix(1,0,0,1,-23,-462)">
                    <path d="M658.13,845.685L687.713,829.606" style="fill:rgb(150,213,218);fill-rule:nonzero;"/>
                </g>
                <g transform="matrix(1,0,0,1,-23,-462)">
                    <path d="M658.237,845.882L658.022,845.487L687.605,829.408L687.82,829.803L658.237,845.882Z" style="fill:white;fill-rule:nonzero;"/>
                </g>
            </g>
            <g id="phone" transform="matrix(1,0,0,1,236.391,361.694)">
                <path d="M88.672,120.119C89.395,122.322 90.537,124.297 92.068,125.961L80.484,142.16C74.618,137.113 70.397,130.199 68.807,122.322L88.672,120.119Z" style="fill:rgb(205,213,216);fill-rule:nonzero;"/>
                <path d="M75.274,40.402L65.073,50.6C61.607,54.067 61.607,59.689 65.073,63.154L65.335,63.417L65.337,82.45L89.194,82.45L89.193,71.986L98.026,63.155C101.494,59.689 101.494,54.067 98.026,50.6L87.827,40.402C84.361,36.935 78.741,36.935 75.274,40.402" style="fill:rgb(226,197,156);fill-rule:nonzero;"/>
                <path d="M107.605,46.235C108.254,47.884 107.444,49.751 105.794,50.401L83.795,59.079C82.147,59.729 80.278,58.92 79.629,57.269C78.979,55.619 79.788,53.753 81.44,53.103L103.438,44.424C105.089,43.775 106.955,44.586 107.605,46.235" style="fill:rgb(226,197,156);fill-rule:nonzero;"/>
                <path d="M107.858,35.949C108.508,37.598 107.699,39.465 106.047,40.115L84.047,48.792C82.398,49.442 80.532,48.631 79.878,46.983C79.229,45.333 80.04,43.467 81.689,42.816L103.688,34.14C105.34,33.489 107.207,34.301 107.858,35.949" style="fill:rgb(226,197,156);fill-rule:nonzero;"/>
                <path d="M110.172,18.015C110.823,19.666 110.012,21.533 108.361,22.182L86.361,30.861C84.711,31.509 82.844,30.699 82.193,29.05C81.543,27.399 82.354,25.534 84.005,24.884L106.004,16.205C107.655,15.555 109.521,16.366 110.172,18.015" style="fill:rgb(233,214,184);fill-rule:nonzero;"/>
                <path d="M96.375,0.479L75.469,0.479C72.938,0.479 70.884,2.533 70.884,5.062L70.884,55.074C70.884,57.605 72.938,59.659 75.469,59.659L96.375,59.659C98.904,59.659 100.957,57.605 100.957,55.074L100.957,5.062C100.957,2.535 98.904,0.48 96.375,0.479" style="fill:rgb(89,98,115);fill-rule:nonzero;"/>
                <path d="M75.469,0.959C73.205,0.959 71.364,2.8 71.364,5.062L71.364,55.074C71.364,57.338 73.205,59.18 75.469,59.18L96.375,59.18C98.637,59.18 100.478,57.338 100.478,55.074L100.478,5.062C100.478,2.801 98.637,0.96 96.375,0.959L75.469,0.959ZM96.375,60.139L75.469,60.139C72.676,60.139 70.405,57.867 70.405,55.074L70.405,5.062C70.405,2.271 72.676,0 75.469,0L96.375,0C99.166,0.001 101.437,2.272 101.437,5.062L101.437,55.074C101.437,57.867 99.166,60.139 96.375,60.139" style="fill:rgb(89,98,115);fill-rule:nonzero;"/>
                <path d="M81.979,4.016L89.861,4.016C90.081,4.016 90.262,4.199 90.262,4.418C90.262,4.642 90.081,4.823 89.861,4.823L81.979,4.823C81.758,4.823 81.581,4.642 81.581,4.418C81.581,4.199 81.758,4.016 81.979,4.016" style="fill:white;fill-rule:nonzero;"/>
                <rect x="72.417" y="9.007" width="27.01" height="39.553" style="fill:rgb(114,188,197);fill-rule:nonzero;"/>
                <path d="M99.906,8.528L98.947,8.528L72.896,8.528L71.937,8.528L71.937,49.04L99.906,49.04L99.906,48.081L99.906,9.487L99.906,8.528ZM98.947,48.081L72.896,48.081L72.896,9.487L98.947,9.487L98.947,48.081Z" style="fill:rgb(89,98,115);fill-rule:nonzero;"/>
                <path d="M96.375,0.479L85.736,0.479L85.736,4.016L89.86,4.016C90.08,4.016 90.262,4.199 90.262,4.418C90.262,4.642 90.08,4.823 89.86,4.823L85.736,4.823L85.736,9.487L98.947,9.487L98.947,48.081L85.736,48.081L85.736,50.993C85.801,50.99 85.859,50.975 85.921,50.975C87.387,50.975 88.572,52.162 88.572,53.628C88.574,55.092 87.387,56.282 85.921,56.281C85.859,56.282 85.801,56.268 85.736,56.263L85.736,59.659L96.375,59.659C98.904,59.659 100.957,57.605 100.957,55.074L100.957,5.062C100.957,2.535 98.904,0.48 96.375,0.479" style="fill:rgb(71,79,89);fill-rule:nonzero;"/>
                <path d="M90.262,4.418C90.262,4.198 90.08,4.016 89.861,4.016L85.737,4.016L85.737,4.822L89.861,4.822C90.08,4.822 90.262,4.642 90.262,4.418" style="fill:rgb(218,225,219);fill-rule:nonzero;"/>
                <rect x="85.736" y="9.487" width="13.211" height="38.594" style="fill:rgb(95,156,164);fill-rule:nonzero;"/>
                <path d="M108.27,27.18C108.924,28.83 108.112,30.696 106.461,31.345L104.173,32.077C102.522,32.729 100.657,31.916 100.006,30.267C99.354,28.617 100.165,26.752 101.817,26.101L104.106,25.37C105.754,24.72 107.62,25.529 108.27,27.18" style="fill:rgb(233,214,184);fill-rule:nonzero;"/>
                <path d="M106.977,45.634C107.627,47.284 106.817,49.151 105.168,49.8L102.877,50.532C101.229,51.182 99.362,50.371 98.713,48.722C98.06,47.071 98.871,45.205 100.522,44.556L102.811,43.825C104.459,43.173 106.327,43.984 106.977,45.634" style="fill:rgb(233,214,184);fill-rule:nonzero;"/>
                <path d="M107.67,35.755C108.322,37.405 107.512,39.271 105.863,39.92L103.573,40.652C101.924,41.303 100.057,40.492 99.406,38.841C98.756,37.192 99.566,35.326 101.217,34.676L103.506,33.946C105.154,33.294 107.022,34.104 107.67,35.755" style="fill:rgb(233,214,184);fill-rule:nonzero;"/>
                <path d="M67.269,33.898L67.231,33.875L65.424,37.959L63.375,42.471L63.431,42.473L61.481,46.884L61.525,46.899L61.525,76.932L72.86,76.932C75.459,73.727 77.086,69.17 77.086,64.11C77.086,57.524 74.331,51.788 70.256,48.782L72.264,42.758L73.682,42.805C77.258,42.862 80.209,40.008 80.267,36.426L80.301,34.27C80.303,34.177 80.293,34.088 80.289,33.998L67.313,33.799L67.269,33.898Z" style="fill:rgb(233,214,184);fill-rule:nonzero;"/>
                <rect x="59.951" y="76.795" width="29.994" height="261.021" style="fill:rgb(210,70,52);fill-rule:nonzero;"/>
                <rect x="76.778" y="77.705" width="12.259" height="259.201" style="fill:rgb(228,147,132);fill-rule:nonzero;"/>
            </g>
            <g id="green hand" transform="matrix(-1,0,0,1,498.011,406.469)">
                <path d="M42.233,20.104L18.512,20.104L18.512,12.912L18.554,12.897L16.631,8.549L16.684,8.547L14.666,4.101L12.885,0.075L12.847,0.097L12.806,0L0.013,0.194C0.009,0.285 -0.001,0.372 0.001,0.463L0.038,2.59C0.092,6.12 2.999,8.931 6.526,8.875L7.926,8.831L9.901,14.767C5.886,17.73 3.169,23.385 3.171,29.877C3.171,31.402 3.323,32.879 3.605,34.288C2.942,35.512 2.565,36.914 2.565,38.404L2.565,39.608C2.565,44.394 6.444,48.272 11.227,48.272L29.759,48.272C33.52,48.272 36.715,45.867 37.913,42.514L42.233,42.514L42.233,20.104Z" style="fill:rgb(233,214,184);fill-rule:nonzero;"/>
                <path d="M78.815,144.779C85.266,135.131 89.032,123.536 89.032,111.058C89.032,77.517 61.84,50.324 28.296,50.324C26.786,50.324 25.29,50.383 23.807,50.49L23.807,18.768C25.295,18.697 26.792,18.658 28.296,18.658C79.329,18.658 120.7,60.027 120.7,111.058C120.7,143.444 104.034,171.932 78.815,188.431L78.815,144.779Z" style="fill:rgb(175,215,166);fill-rule:nonzero;"/>
                <g id="Layer 4" transform="matrix(1,0,0,1,23.8069,34.536)">
                    <path d="M55.008,111.155C61.459,101.507 65.225,89.912 65.225,77.434C65.225,43.893 38.033,16.7 4.49,16.7C2.979,16.7 1.483,16.759 0,16.866L0,0.099C1.305,0.034 2.617,0.001 3.939,0.001C47.27,0.001 82.396,35.128 82.396,78.459C82.396,102.284 71.773,123.629 55.008,138.016L55.008,111.155Z" style="fill:rgb(122,194,134);fill-rule:nonzero;"/>
                </g>
            </g>
        </g>
    </g>
</svg>
